<?xml version="1.0" encoding="utf-8"?>
<!-- Generator: Adobe Illustrator 26.5.1, SVG Export Plug-In . SVG Version: 6.00 Build 0)  -->
<svg version="1.1" id="Ebene_1" xmlns="http://www.w3.org/2000/svg" xmlns:xlink="http://www.w3.org/1999/xlink" x="0px" y="0px"
	 viewBox="0 0 177.3 136" style="enable-background:new 0 0 177.3 136;" xml:space="preserve">
<style type="text/css">
	.st0{fill:#E4E579;}
	.st1{enable-background:new    ;}
	.st2{fill:#FFFFFF;}
</style>
<polygon class="st0" points="0,0 60,0 177.3,90 177.3,136 "/>
<g class="st1">
	<path class="st2" d="M81.9,31.1l-3.1-2.4L70.9,39c-0.5,0.6-0.9,0.9-1.4,1c-0.5,0.1-0.9,0-1.4-0.4c-0.4-0.3-0.7-0.7-0.7-1.2
		c0-0.5,0.2-1,0.6-1.6l7.9-10.3l-3.1-2.4c-0.5-0.4-0.8-0.8-0.8-1.2c-0.1-0.4,0-0.8,0.3-1.1c0.3-0.4,0.6-0.6,1-0.6
		c0.4,0,0.9,0.1,1.3,0.5l9.1,7c0.5,0.4,0.8,0.8,0.9,1.2c0.1,0.4,0,0.8-0.3,1.1c-0.3,0.4-0.6,0.5-1,0.6
		C82.9,31.7,82.4,31.5,81.9,31.1z"/>
	<path class="st2" d="M85.4,45.5l-5.2-4c-0.5,0.6-0.7,1.2-0.9,1.9c-0.1,0.6-0.1,1.2,0.1,1.8c0.2,0.5,0.6,1,1,1.3
		c0.3,0.2,0.6,0.4,1,0.6c0.3,0.1,0.7,0.2,1,0.2c0.4,0,0.7,0,1.1,0s0.8-0.1,1.4-0.1c0.2,0,0.5,0.1,0.7,0.3c0.3,0.2,0.4,0.5,0.5,0.7
		c0.1,0.3,0,0.6-0.2,0.8c-0.2,0.2-0.5,0.4-0.9,0.6c-0.4,0.2-1,0.3-1.6,0.3s-1.3-0.1-2-0.4c-0.7-0.2-1.5-0.7-2.2-1.2
		c-1.7-1.3-2.6-2.8-2.8-4.5c-0.2-1.7,0.3-3.4,1.6-5c0.6-0.8,1.3-1.4,2-1.9c0.7-0.5,1.5-0.8,2.3-0.9c0.8-0.1,1.6-0.1,2.5,0.2
		c0.8,0.2,1.7,0.7,2.5,1.3c1,0.8,1.8,1.7,2.2,2.7c0.4,1,0.5,2,0.4,3c-0.2,1-0.5,1.8-1.1,2.5c-0.5,0.7-1,1-1.6,0.9
		C86.7,46.3,86.1,46,85.4,45.5z M81.4,40l4.8,3.7c0.6-1,0.9-1.8,0.8-2.6c-0.1-0.8-0.5-1.4-1.2-2c-0.7-0.5-1.4-0.7-2.1-0.6
		C82.9,38.7,82.2,39.2,81.4,40z"/>
	<path class="st2" d="M92.5,56.7l0.2-4.3l-4.1,1.3c-0.6,0.2-1,0.3-1.4,0.3c-0.3,0-0.6-0.1-0.9-0.3c-0.3-0.3-0.5-0.6-0.6-1
		c-0.1-0.4,0-0.7,0.2-1c0.2-0.3,0.7-0.5,1.5-0.8l5-1.6l0.1-4.5c0-0.8,0.1-1.3,0.4-1.7c0.2-0.3,0.5-0.4,0.9-0.5
		c0.4,0,0.7,0.1,1.1,0.4c0.3,0.2,0.5,0.5,0.6,0.9c0.1,0.3,0.1,0.8,0.1,1.4L95.4,49l3.5-1.1c0.6-0.2,1-0.3,1.4-0.3
		c0.3,0,0.6,0.1,1,0.3c0.3,0.3,0.6,0.6,0.6,1c0.1,0.4,0,0.7-0.2,1c-0.2,0.2-0.3,0.4-0.6,0.5c-0.2,0.1-0.5,0.2-0.9,0.3l-4.3,1.2
		l-0.2,5.3c0,0.8-0.2,1.4-0.4,1.6c-0.2,0.3-0.5,0.4-0.9,0.4c-0.4,0-0.8-0.1-1.1-0.4c-0.3-0.2-0.5-0.5-0.6-0.9S92.5,57.3,92.5,56.7z"
		/>
	<path class="st2" d="M104.5,50.9l0.3,0.2l1.2-1.6c0.3-0.4,0.6-0.8,0.8-1c0.2-0.2,0.4-0.4,0.7-0.5c0.2-0.1,0.5-0.1,0.8-0.1
		c0.3,0,0.5,0.1,0.8,0.3c0.3,0.3,0.5,0.6,0.6,1.1c0.1,0.3,0,0.6-0.1,0.9c-0.1,0.3-0.4,0.6-0.7,1.1l-1.4,1.8l1,0.7
		c0.4,0.3,0.6,0.6,0.7,0.9c0.1,0.3,0,0.6-0.2,0.9c-0.3,0.4-0.6,0.5-1,0.4c-0.4-0.1-0.8-0.3-1.4-0.7l-0.5-0.4l-3.7,4.9
		c-0.3,0.4-0.5,0.7-0.7,1c-0.1,0.2-0.2,0.5-0.2,0.7c0,0.2,0.2,0.5,0.5,0.7c0.2,0.1,0.4,0.3,0.7,0.4s0.5,0.3,0.7,0.4
		c0.2,0.2,0.3,0.4,0.4,0.7c0,0.3,0,0.6-0.2,0.8c-0.3,0.4-0.8,0.6-1.4,0.4c-0.6-0.1-1.4-0.5-2.3-1.2c-0.8-0.6-1.3-1.3-1.6-1.9
		s-0.2-1.2,0-1.8s0.7-1.3,1.3-2.1l3.9-5.1l-0.3-0.3c-0.4-0.3-0.6-0.6-0.7-0.9c-0.1-0.3,0-0.6,0.2-0.9c0.2-0.3,0.5-0.4,0.8-0.4
		S104.1,50.6,104.5,50.9z"/>
	<path class="st2" d="M121,72.1l-2.7,3.5c-0.4,0.6-0.9,0.9-1.3,1c-0.5,0.1-0.9,0-1.3-0.3c-0.4-0.3-0.6-0.7-0.7-1.2
		c0-0.5,0.2-1,0.6-1.5l3.2-4.2c0.5-0.7,0.9-1.2,1.1-1.6c0.2-0.4,0.3-0.8,0.3-1.2c0-0.4-0.2-0.8-0.7-1.1c-0.9-0.7-1.7-0.8-2.4-0.4
		c-0.7,0.4-1.5,1.1-2.4,2.2l-2.7,3.6c-0.4,0.5-0.9,0.9-1.3,1c-0.5,0.1-0.9,0-1.3-0.3c-0.4-0.3-0.6-0.7-0.7-1.2c0-0.5,0.2-1,0.6-1.5
		l5.8-7.6c0.4-0.5,0.8-0.8,1.2-0.9c0.4-0.1,0.8,0,1.2,0.3c0.4,0.3,0.6,0.6,0.6,1.1s-0.1,0.9-0.4,1.3l-0.2,0.3
		c0.9-0.2,1.7-0.2,2.4-0.1s1.4,0.5,2,0.9c0.7,0.5,1.1,1.1,1.4,1.7s0.4,1.3,0.3,2.1c0.9-0.2,1.6-0.2,2.4-0.1c0.7,0.1,1.4,0.4,2,0.9
		c0.7,0.6,1.2,1.2,1.5,1.9c0.3,0.7,0.4,1.4,0.2,2.1c-0.1,0.7-0.6,1.5-1.4,2.5l-4,5.2c-0.4,0.6-0.9,0.9-1.3,1c-0.5,0.1-0.9,0-1.3-0.3
		c-0.4-0.3-0.6-0.7-0.7-1.2s0.2-1,0.6-1.5l3.4-4.4c0.4-0.6,0.8-1,1-1.4s0.3-0.8,0.3-1.2c0-0.4-0.3-0.8-0.7-1.1
		c-0.3-0.3-0.8-0.4-1.2-0.5c-0.5,0-0.9,0.1-1.4,0.3C122.6,70.2,121.9,70.9,121,72.1z"/>
	<path class="st2" d="M136.8,84.9l-5.2-4c-0.5,0.6-0.7,1.2-0.9,1.9c-0.1,0.6-0.1,1.2,0.1,1.8c0.2,0.5,0.6,1,1,1.3
		c0.3,0.2,0.6,0.4,1,0.6c0.3,0.1,0.7,0.2,1,0.2c0.4,0,0.7,0,1.1,0c0.3,0,0.8-0.1,1.4-0.1c0.2,0,0.5,0.1,0.7,0.3
		c0.3,0.2,0.4,0.5,0.5,0.7c0.1,0.3,0,0.6-0.2,0.8c-0.2,0.2-0.5,0.4-0.9,0.6s-1,0.3-1.6,0.3s-1.3-0.1-2-0.4c-0.7-0.2-1.5-0.7-2.2-1.2
		c-1.7-1.3-2.6-2.8-2.8-4.5c-0.2-1.7,0.3-3.4,1.6-5c0.6-0.8,1.3-1.4,2-1.9c0.7-0.5,1.5-0.8,2.3-0.9s1.6-0.1,2.5,0.2
		c0.8,0.2,1.7,0.7,2.5,1.3c1,0.8,1.8,1.7,2.2,2.7c0.4,1,0.5,2,0.4,3c-0.2,1-0.5,1.8-1.1,2.5c-0.5,0.7-1,0.9-1.6,0.9
		C138.1,85.7,137.5,85.4,136.8,84.9z M132.8,79.4l4.8,3.7c0.6-1,0.9-1.8,0.8-2.6c-0.1-0.8-0.5-1.4-1.2-2c-0.7-0.5-1.4-0.7-2.1-0.6
		C134.3,78.1,133.5,78.6,132.8,79.4z"/>
</g>
</svg>
